<svg width="87" height="25" viewBox="0 0 87 25" fill="none" xmlns="http://www.w3.org/2000/svg">
<rect y="0.660156" width="87" height="24" rx="4" fill="#E20D18"/>
<path d="M19.986 7.0028C19.4378 6.1962 18.8113 5.44442 18.1065 4.77095C17.8324 4.50469 17.3704 4.75529 17.4487 5.13118C17.5975 5.8673 17.7541 6.83835 17.7541 7.70759C17.7541 9.32079 16.6969 10.6286 15.0837 10.6286C13.8777 10.6286 12.891 9.90029 12.4603 8.85876C12.382 8.70214 12.3507 8.60816 12.3037 8.43588C12.2176 8.10698 11.7868 8.00517 11.5989 8.29492C11.4579 8.50636 11.3248 8.7178 11.1995 8.9449C10.2676 10.5424 9.73511 12.4062 9.73511 14.3953C9.73511 17.8566 12.5386 20.6602 16 20.6602C19.4613 20.6602 22.2648 17.8566 22.2648 14.3953C22.2648 11.6623 21.419 9.12501 19.986 7.0028ZM15.7729 18.3108C14.3789 18.3108 13.2513 17.2145 13.2513 15.8519C13.2513 14.5833 14.0735 13.6905 15.4518 13.4086C16.6029 13.1737 17.7854 12.6803 18.6077 11.905C18.827 11.7014 19.1872 11.7954 19.2498 12.0852C19.43 12.8839 19.5239 13.714 19.5239 14.5519C19.5318 16.6272 17.8481 18.3108 15.7729 18.3108Z" fill="#EAEAEA"/>
<path d="M31.5116 17.1602V7.55616H36.2576C36.9203 7.55616 37.471 7.68216 37.9096 7.93416C38.3483 8.17682 38.675 8.51749 38.8896 8.95616C39.1136 9.39482 39.2256 9.90349 39.2256 10.4822C39.2256 11.0702 39.1043 11.5928 38.8616 12.0502C38.619 12.4982 38.2736 12.8482 37.8256 13.1002C37.387 13.3522 36.8596 13.4782 36.2436 13.4782H32.8416V17.1602H31.5116ZM32.8416 12.3302H36.1596C36.6823 12.3302 37.0976 12.1668 37.4056 11.8402C37.723 11.5135 37.8816 11.0655 37.8816 10.4962C37.8816 10.1135 37.8163 9.79149 37.6856 9.53016C37.555 9.26882 37.3636 9.06816 37.1116 8.92816C36.8596 8.77882 36.5423 8.70416 36.1596 8.70416H32.8416V12.3302ZM43.4714 17.3282C42.7248 17.3282 42.0948 17.1928 41.5814 16.9222C41.0774 16.6422 40.6901 16.2175 40.4194 15.6482C40.1581 15.0788 40.0274 14.3555 40.0274 13.4782C40.0274 12.5915 40.1581 11.8682 40.4194 11.3082C40.6901 10.7388 41.0774 10.3188 41.5814 10.0482C42.0948 9.76816 42.7248 9.62816 43.4714 9.62816C44.2181 9.62816 44.8434 9.76816 45.3474 10.0482C45.8608 10.3188 46.2481 10.7388 46.5094 11.3082C46.7708 11.8682 46.9014 12.5915 46.9014 13.4782C46.9014 14.3555 46.7708 15.0788 46.5094 15.6482C46.2481 16.2175 45.8608 16.6422 45.3474 16.9222C44.8434 17.1928 44.2181 17.3282 43.4714 17.3282ZM43.4714 16.2922C43.9474 16.2922 44.3441 16.1988 44.6614 16.0122C44.9788 15.8255 45.2168 15.5362 45.3754 15.1442C45.5434 14.7428 45.6274 14.2388 45.6274 13.6322V13.3242C45.6274 12.7082 45.5434 12.2042 45.3754 11.8122C45.2168 11.4202 44.9788 11.1308 44.6614 10.9442C44.3441 10.7575 43.9474 10.6642 43.4714 10.6642C42.9954 10.6642 42.5941 10.7575 42.2674 10.9442C41.9501 11.1308 41.7121 11.4202 41.5534 11.8122C41.3948 12.2042 41.3154 12.7082 41.3154 13.3242V13.6322C41.3154 14.2388 41.3948 14.7428 41.5534 15.1442C41.7121 15.5362 41.9501 15.8255 42.2674 16.0122C42.5941 16.1988 42.9954 16.2922 43.4714 16.2922ZM48.4318 19.5822V9.79616H49.4118L49.5378 10.8462H49.6358C49.8878 10.4355 50.2098 10.1322 50.6018 9.93616C50.9938 9.73082 51.4372 9.62816 51.9318 9.62816C52.5478 9.62816 53.0705 9.76349 53.4998 10.0342C53.9292 10.3048 54.2605 10.7295 54.4938 11.3082C54.7272 11.8775 54.8438 12.6195 54.8438 13.5342C54.8438 14.3928 54.7225 15.1068 54.4798 15.6762C54.2465 16.2362 53.9152 16.6515 53.4858 16.9222C53.0565 17.1928 52.5572 17.3282 51.9878 17.3282C51.6705 17.3282 51.3718 17.2908 51.0918 17.2162C50.8118 17.1415 50.5598 17.0248 50.3358 16.8662C50.1118 16.6982 49.9158 16.4882 49.7478 16.2362H49.6638V19.5822H48.4318ZM51.5958 16.2502C52.0532 16.2502 52.4265 16.1615 52.7158 15.9842C53.0052 15.7975 53.2198 15.5128 53.3598 15.1302C53.4998 14.7382 53.5698 14.2388 53.5698 13.6322V13.3382C53.5698 12.6942 53.4952 12.1808 53.3458 11.7982C53.1965 11.4062 52.9772 11.1262 52.6878 10.9582C52.4078 10.7902 52.0578 10.7062 51.6378 10.7062C51.1805 10.7062 50.8025 10.8088 50.5038 11.0142C50.2145 11.2102 49.9998 11.5088 49.8598 11.9102C49.7292 12.3115 49.6638 12.8015 49.6638 13.3802V13.5902C49.6638 14.1035 49.7105 14.5328 49.8038 14.8782C49.9065 15.2142 50.0465 15.4848 50.2238 15.6902C50.4105 15.8955 50.6205 16.0402 50.8538 16.1242C51.0872 16.2082 51.3345 16.2502 51.5958 16.2502ZM58.6572 17.3282C57.9478 17.3282 57.3785 17.1462 56.9492 16.7822C56.5198 16.4182 56.3052 15.7835 56.3052 14.8782V9.79616H57.5372V14.7102C57.5372 15.0182 57.5745 15.2702 57.6492 15.4662C57.7238 15.6622 57.8312 15.8162 57.9712 15.9282C58.1112 16.0402 58.2745 16.1195 58.4612 16.1662C58.6572 16.2128 58.8672 16.2362 59.0912 16.2362C59.4458 16.2362 59.7725 16.1522 60.0712 15.9842C60.3698 15.8162 60.6125 15.5735 60.7992 15.2562C60.9952 14.9295 61.0932 14.5515 61.0932 14.1222V9.79616H62.3252V17.1602H61.3312L61.2192 16.0542H61.1212C60.9252 16.3528 60.7012 16.5955 60.4492 16.7822C60.2065 16.9688 59.9312 17.1042 59.6232 17.1882C59.3245 17.2815 59.0025 17.3282 58.6572 17.3282ZM64.2365 17.1602V7.03816H65.4685V17.1602H64.2365ZM69.229 17.3282C68.9584 17.3282 68.6877 17.2955 68.417 17.2302C68.1464 17.1648 67.8944 17.0575 67.661 16.9082C67.4277 16.7588 67.241 16.5535 67.101 16.2922C66.961 16.0215 66.891 15.6855 66.891 15.2842C66.891 14.7802 67.0124 14.3648 67.255 14.0382C67.4977 13.7115 67.8337 13.4595 68.263 13.2822C68.7017 13.0955 69.2197 12.9695 69.817 12.9042C70.4144 12.8295 71.063 12.7922 71.763 12.7922V11.9522C71.763 11.6815 71.7164 11.4482 71.623 11.2522C71.5297 11.0562 71.3617 10.9068 71.119 10.8042C70.8857 10.6922 70.5497 10.6362 70.111 10.6362C69.691 10.6362 69.355 10.6922 69.103 10.8042C68.8604 10.9068 68.6877 11.0422 68.585 11.2102C68.4917 11.3782 68.445 11.5648 68.445 11.7702V11.9802H67.255C67.2457 11.9335 67.241 11.8868 67.241 11.8402C67.241 11.7935 67.241 11.7375 67.241 11.6722C67.241 11.2242 67.3624 10.8508 67.605 10.5522C67.857 10.2442 68.207 10.0155 68.655 9.86616C69.103 9.70749 69.6164 9.62816 70.195 9.62816C70.811 9.62816 71.3244 9.71682 71.735 9.89416C72.155 10.0715 72.4677 10.3235 72.673 10.6502C72.8877 10.9768 72.995 11.3688 72.995 11.8262V15.8162C72.995 15.9935 73.037 16.1195 73.121 16.1942C73.205 16.2595 73.3077 16.2922 73.429 16.2922H73.975V17.1042C73.8444 17.1602 73.6997 17.2068 73.541 17.2442C73.3824 17.2908 73.2004 17.3142 72.995 17.3142C72.7524 17.3142 72.5517 17.2628 72.393 17.1602C72.2344 17.0668 72.113 16.9362 72.029 16.7682C71.945 16.5908 71.889 16.3948 71.861 16.1802H71.763C71.595 16.4135 71.3804 16.6188 71.119 16.7962C70.867 16.9642 70.5824 17.0948 70.265 17.1882C69.9477 17.2815 69.6024 17.3282 69.229 17.3282ZM69.537 16.2922C69.8357 16.2922 70.1157 16.2455 70.377 16.1522C70.6477 16.0588 70.8857 15.9282 71.091 15.7602C71.2964 15.5828 71.4597 15.3728 71.581 15.1302C71.7024 14.8875 71.763 14.6215 71.763 14.3322V13.7162C71.007 13.7162 70.363 13.7582 69.831 13.8422C69.299 13.9262 68.8884 14.0755 68.599 14.2902C68.319 14.5048 68.179 14.8082 68.179 15.2002C68.179 15.4522 68.235 15.6575 68.347 15.8162C68.459 15.9748 68.6177 16.0962 68.823 16.1802C69.0284 16.2548 69.2664 16.2922 69.537 16.2922ZM75.0099 17.1602V9.79616H76.0039L76.1159 11.0142H76.2139C76.2886 10.7808 76.3913 10.5615 76.5219 10.3562C76.6526 10.1415 76.8299 9.96882 77.0539 9.83816C77.2779 9.69816 77.5533 9.62816 77.8799 9.62816C78.0199 9.62816 78.1459 9.64216 78.2579 9.67016C78.3793 9.68882 78.4679 9.71216 78.5239 9.74016V10.8742H78.0619C77.7446 10.8742 77.4693 10.9302 77.2359 11.0422C77.0119 11.1448 76.8253 11.2942 76.6759 11.4902C76.5266 11.6862 76.4146 11.9195 76.3399 12.1902C76.2746 12.4608 76.2419 12.7502 76.2419 13.0582V17.1602H75.0099Z" fill="#EAEAEA"/>
</svg>
