<svg width="113" height="25" viewBox="0 0 113 25" fill="none" xmlns="http://www.w3.org/2000/svg">
<rect y="0.640625" width="113" height="24" rx="4" fill="#50710A"/>
<path d="M16.5 7.64102C14.0437 7.64102 11.9656 9.2504 11.2594 11.4691C12.3094 10.9379 13.4938 10.641 14.75 10.641H17.5C17.775 10.641 18 10.866 18 11.141C18 11.416 17.775 11.641 17.5 11.641H17H14.75C14.2312 11.641 13.7281 11.7004 13.2406 11.8098C12.4313 11.9941 11.6813 12.3223 11.0094 12.7691C9.19688 13.9785 8 16.0441 8 18.391V18.891C8 19.3066 8.33437 19.641 8.75 19.641C9.16562 19.641 9.5 19.3066 9.5 18.891V18.391C9.5 16.8691 10.1469 15.5004 11.1813 14.541C11.8 16.9004 13.9469 18.641 16.5 18.641H16.5312C20.6594 18.6191 24 14.5504 24 9.53477C24 8.20352 23.7656 6.9379 23.3406 5.79727C23.2594 5.58165 22.9438 5.59102 22.8344 5.79415C22.2469 6.89415 21.0844 7.64102 19.75 7.64102H16.5Z" fill="#EAEAEA"/>
<path d="M33.8998 17.1406L30.3158 7.53662H31.7578L34.2218 14.3406C34.2778 14.4713 34.3338 14.6206 34.3898 14.7886C34.4458 14.9566 34.5018 15.12 34.5578 15.2786C34.6138 15.4373 34.6651 15.5773 34.7118 15.6986H34.7958C34.8331 15.5866 34.8798 15.4513 34.9358 15.2926C34.9918 15.134 35.0478 14.9753 35.1038 14.8166C35.1598 14.6486 35.2158 14.49 35.2718 14.3406L37.7078 7.53662H39.1078L35.5098 17.1406H33.8998ZM42.531 17.3086C41.803 17.3086 41.187 17.1733 40.683 16.9026C40.1883 16.6226 39.8103 16.198 39.549 15.6286C39.297 15.0593 39.171 14.336 39.171 13.4586C39.171 12.572 39.297 11.8486 39.549 11.2886C39.8103 10.7193 40.193 10.2993 40.697 10.0286C41.201 9.74862 41.831 9.60862 42.587 9.60862C43.2777 9.60862 43.8563 9.74396 44.323 10.0146C44.7897 10.276 45.1397 10.6726 45.373 11.2046C45.6157 11.7273 45.737 12.3853 45.737 13.1786V13.7666H40.445C40.4637 14.3546 40.5477 14.84 40.697 15.2226C40.8557 15.596 41.089 15.8713 41.397 16.0486C41.705 16.2166 42.0923 16.3006 42.559 16.3006C42.8763 16.3006 43.1517 16.2633 43.385 16.1886C43.6277 16.1046 43.8283 15.988 43.987 15.8386C44.155 15.6893 44.281 15.512 44.365 15.3066C44.449 15.1013 44.4957 14.8773 44.505 14.6346H45.709C45.6997 15.0266 45.625 15.3906 45.485 15.7266C45.345 16.0533 45.1397 16.3333 44.869 16.5666C44.5983 16.8 44.267 16.982 43.875 17.1126C43.483 17.2433 43.035 17.3086 42.531 17.3086ZM40.473 12.8426H44.463C44.463 12.432 44.4163 12.0866 44.323 11.8066C44.2297 11.5266 44.0943 11.298 43.917 11.1206C43.749 10.9433 43.5483 10.8173 43.315 10.7426C43.091 10.6586 42.8343 10.6166 42.545 10.6166C42.1157 10.6166 41.7517 10.696 41.453 10.8546C41.1543 11.0133 40.9257 11.256 40.767 11.5826C40.6083 11.9093 40.5103 12.3293 40.473 12.8426ZM48.5069 19.6886C48.1523 19.6886 47.8256 19.614 47.5269 19.4646C47.2283 19.3246 46.9903 19.1193 46.8129 18.8486C46.6356 18.578 46.5469 18.256 46.5469 17.8826C46.5469 17.472 46.6589 17.1313 46.8829 16.8606C47.1163 16.59 47.3916 16.3893 47.7089 16.2586C47.4756 16.1466 47.2936 15.9926 47.1629 15.7966C47.0323 15.5913 46.9669 15.3673 46.9669 15.1246C46.9669 14.798 47.0836 14.5226 47.3169 14.2986C47.5596 14.0746 47.8536 13.9253 48.1989 13.8506C47.8816 13.6453 47.6296 13.384 47.4429 13.0666C47.2656 12.74 47.1769 12.3806 47.1769 11.9886C47.1769 11.522 47.2843 11.1113 47.4989 10.7566C47.7229 10.402 48.0589 10.122 48.5069 9.91662C48.9643 9.71129 49.5196 9.60862 50.1729 9.60862C50.4716 9.60862 50.7516 9.63196 51.0129 9.67862C51.2743 9.71596 51.5076 9.78129 51.7129 9.87462C52.0396 9.72529 52.2823 9.53396 52.4409 9.30062C52.6089 9.06729 52.7116 8.82929 52.7489 8.58662H53.9669C53.9669 8.86662 53.9016 9.13262 53.7709 9.38462C53.6496 9.62729 53.4816 9.83262 53.2669 10.0006C53.0523 10.1593 52.7909 10.2666 52.4829 10.3226C52.7163 10.5466 52.8889 10.7986 53.0009 11.0786C53.1223 11.3586 53.1829 11.662 53.1829 11.9886C53.1829 12.4553 53.0709 12.8706 52.8469 13.2346C52.6323 13.5893 52.3056 13.8693 51.8669 14.0746C51.4283 14.28 50.8776 14.3826 50.2149 14.3826H49.0669C48.8149 14.3826 48.6096 14.434 48.4509 14.5366C48.2923 14.63 48.2129 14.784 48.2129 14.9986C48.2129 15.1853 48.2923 15.3393 48.4509 15.4606C48.6096 15.5726 48.8149 15.6286 49.0669 15.6286H52.0629C52.6043 15.6286 53.0476 15.8106 53.3929 16.1746C53.7383 16.5293 53.9109 16.9866 53.9109 17.5466C53.9109 17.948 53.8083 18.3073 53.6029 18.6246C53.4069 18.9513 53.1269 19.208 52.7629 19.3946C52.4083 19.5906 51.9929 19.6886 51.5169 19.6886H48.5069ZM48.8569 18.7506H51.5029C51.7176 18.7506 51.9136 18.704 52.0909 18.6106C52.2683 18.5266 52.4083 18.4053 52.5109 18.2466C52.6136 18.088 52.6649 17.9153 52.6649 17.7286C52.6649 17.4113 52.5716 17.1593 52.3849 16.9726C52.1983 16.786 51.9649 16.6926 51.6849 16.6926H48.8569C48.5583 16.6926 48.3063 16.7953 48.1009 17.0006C47.8956 17.1966 47.7929 17.4393 47.7929 17.7286C47.7929 18.0366 47.8956 18.284 48.1009 18.4706C48.3063 18.6573 48.5583 18.7506 48.8569 18.7506ZM50.1869 13.4586C50.7843 13.4586 51.2276 13.328 51.5169 13.0666C51.8063 12.8053 51.9509 12.446 51.9509 11.9886C51.9509 11.5406 51.8063 11.186 51.5169 10.9246C51.2276 10.6633 50.7843 10.5326 50.1869 10.5326C49.5896 10.5326 49.1416 10.6633 48.8429 10.9246C48.5536 11.186 48.4089 11.5406 48.4089 11.9886C48.4089 12.278 48.4743 12.5346 48.6049 12.7586C48.7356 12.9826 48.9316 13.1553 49.1929 13.2766C49.4543 13.398 49.7856 13.4586 50.1869 13.4586ZM57.9802 17.3086C57.2522 17.3086 56.6362 17.1733 56.1322 16.9026C55.6376 16.6226 55.2596 16.198 54.9982 15.6286C54.7462 15.0593 54.6202 14.336 54.6202 13.4586C54.6202 12.572 54.7462 11.8486 54.9982 11.2886C55.2596 10.7193 55.6422 10.2993 56.1462 10.0286C56.6502 9.74862 57.2802 9.60862 58.0362 9.60862C58.7269 9.60862 59.3056 9.74396 59.7722 10.0146C60.2389 10.276 60.5889 10.6726 60.8222 11.2046C61.0649 11.7273 61.1862 12.3853 61.1862 13.1786V13.7666H55.8942C55.9129 14.3546 55.9969 14.84 56.1462 15.2226C56.3049 15.596 56.5382 15.8713 56.8462 16.0486C57.1542 16.2166 57.5416 16.3006 58.0082 16.3006C58.3256 16.3006 58.6009 16.2633 58.8342 16.1886C59.0769 16.1046 59.2776 15.988 59.4362 15.8386C59.6042 15.6893 59.7302 15.512 59.8142 15.3066C59.8982 15.1013 59.9449 14.8773 59.9542 14.6346H61.1582C61.1489 15.0266 61.0742 15.3906 60.9342 15.7266C60.7942 16.0533 60.5889 16.3333 60.3182 16.5666C60.0476 16.8 59.7162 16.982 59.3242 17.1126C58.9322 17.2433 58.4842 17.3086 57.9802 17.3086ZM55.9222 12.8426H59.9122C59.9122 12.432 59.8656 12.0866 59.7722 11.8066C59.6789 11.5266 59.5436 11.298 59.3662 11.1206C59.1982 10.9433 58.9976 10.8173 58.7642 10.7426C58.5402 10.6586 58.2836 10.6166 57.9942 10.6166C57.5649 10.6166 57.2009 10.696 56.9022 10.8546C56.6036 11.0133 56.3749 11.256 56.2162 11.5826C56.0576 11.9093 55.9596 12.3293 55.9222 12.8426ZM64.4321 17.3086C64.0495 17.3086 63.7508 17.2386 63.5361 17.0986C63.3215 16.9493 63.1675 16.758 63.0741 16.5246C62.9808 16.282 62.9341 16.0253 62.9341 15.7546V10.8126H61.9821V9.77662H62.9621L63.1861 7.71862H64.1661V9.77662H65.5521V10.8126H64.1661V15.5726C64.1661 15.806 64.2081 15.9833 64.2921 16.1046C64.3761 16.2166 64.5348 16.2726 64.7681 16.2726H65.5521V17.0846C65.4588 17.1313 65.3468 17.1686 65.2161 17.1966C65.0855 17.2246 64.9501 17.248 64.8101 17.2666C64.6795 17.2946 64.5535 17.3086 64.4321 17.3086ZM68.7144 17.3086C68.4437 17.3086 68.1731 17.276 67.9024 17.2106C67.6317 17.1453 67.3797 17.038 67.1464 16.8886C66.9131 16.7393 66.7264 16.534 66.5864 16.2726C66.4464 16.002 66.3764 15.666 66.3764 15.2646C66.3764 14.7606 66.4977 14.3453 66.7404 14.0186C66.9831 13.692 67.3191 13.44 67.7484 13.2626C68.1871 13.076 68.7051 12.95 69.3024 12.8846C69.8997 12.81 70.5484 12.7726 71.2484 12.7726V11.9326C71.2484 11.662 71.2017 11.4286 71.1084 11.2326C71.0151 11.0366 70.8471 10.8873 70.6044 10.7846C70.3711 10.6726 70.0351 10.6166 69.5964 10.6166C69.1764 10.6166 68.8404 10.6726 68.5884 10.7846C68.3457 10.8873 68.1731 11.0226 68.0704 11.1906C67.9771 11.3586 67.9304 11.5453 67.9304 11.7506V11.9606H66.7404C66.7311 11.914 66.7264 11.8673 66.7264 11.8206C66.7264 11.774 66.7264 11.718 66.7264 11.6526C66.7264 11.2046 66.8477 10.8313 67.0904 10.5326C67.3424 10.2246 67.6924 9.99596 68.1404 9.84662C68.5884 9.68796 69.1017 9.60862 69.6804 9.60862C70.2964 9.60862 70.8097 9.69729 71.2204 9.87462C71.6404 10.052 71.9531 10.304 72.1584 10.6306C72.3731 10.9573 72.4804 11.3493 72.4804 11.8066V15.7966C72.4804 15.974 72.5224 16.1 72.6064 16.1746C72.6904 16.24 72.7931 16.2726 72.9144 16.2726H73.4604V17.0846C73.3297 17.1406 73.1851 17.1873 73.0264 17.2246C72.8677 17.2713 72.6857 17.2946 72.4804 17.2946C72.2377 17.2946 72.0371 17.2433 71.8784 17.1406C71.7197 17.0473 71.5984 16.9166 71.5144 16.7486C71.4304 16.5713 71.3744 16.3753 71.3464 16.1606H71.2484C71.0804 16.394 70.8657 16.5993 70.6044 16.7766C70.3524 16.9446 70.0677 17.0753 69.7504 17.1686C69.4331 17.262 69.0877 17.3086 68.7144 17.3086ZM69.0224 16.2726C69.3211 16.2726 69.6011 16.226 69.8624 16.1326C70.1331 16.0393 70.3711 15.9086 70.5764 15.7406C70.7817 15.5633 70.9451 15.3533 71.0664 15.1106C71.1877 14.868 71.2484 14.602 71.2484 14.3126V13.6966C70.4924 13.6966 69.8484 13.7386 69.3164 13.8226C68.7844 13.9066 68.3737 14.056 68.0844 14.2706C67.8044 14.4853 67.6644 14.7886 67.6644 15.1806C67.6644 15.4326 67.7204 15.638 67.8324 15.7966C67.9444 15.9553 68.1031 16.0766 68.3084 16.1606C68.5137 16.2353 68.7517 16.2726 69.0224 16.2726ZM74.4953 17.1406V9.77662H75.4893L75.6013 10.9946H75.6993C75.774 10.7613 75.8766 10.542 76.0073 10.3366C76.138 10.122 76.3153 9.94929 76.5393 9.81862C76.7633 9.67862 77.0386 9.60862 77.3653 9.60862C77.5053 9.60862 77.6313 9.62262 77.7433 9.65062C77.8646 9.66929 77.9533 9.69262 78.0093 9.72062V10.8546H77.5473C77.23 10.8546 76.9546 10.9106 76.7213 11.0226C76.4973 11.1253 76.3106 11.2746 76.1613 11.4706C76.012 11.6666 75.9 11.9 75.8253 12.1706C75.76 12.4413 75.7273 12.7306 75.7273 13.0386V17.1406H74.4953ZM79.1437 8.39062V7.01862H80.3757V8.39062H79.1437ZM79.1437 17.1406V9.77662H80.3757V17.1406H79.1437ZM84.1363 17.3086C83.8656 17.3086 83.5949 17.276 83.3243 17.2106C83.0536 17.1453 82.8016 17.038 82.5683 16.8886C82.3349 16.7393 82.1483 16.534 82.0083 16.2726C81.8683 16.002 81.7983 15.666 81.7983 15.2646C81.7983 14.7606 81.9196 14.3453 82.1623 14.0186C82.4049 13.692 82.7409 13.44 83.1703 13.2626C83.6089 13.076 84.1269 12.95 84.7243 12.8846C85.3216 12.81 85.9703 12.7726 86.6703 12.7726V11.9326C86.6703 11.662 86.6236 11.4286 86.5303 11.2326C86.4369 11.0366 86.2689 10.8873 86.0263 10.7846C85.7929 10.6726 85.4569 10.6166 85.0183 10.6166C84.5983 10.6166 84.2623 10.6726 84.0103 10.7846C83.7676 10.8873 83.5949 11.0226 83.4923 11.1906C83.3989 11.3586 83.3523 11.5453 83.3523 11.7506V11.9606H82.1623C82.1529 11.914 82.1483 11.8673 82.1483 11.8206C82.1483 11.774 82.1483 11.718 82.1483 11.6526C82.1483 11.2046 82.2696 10.8313 82.5123 10.5326C82.7643 10.2246 83.1143 9.99596 83.5623 9.84662C84.0103 9.68796 84.5236 9.60862 85.1023 9.60862C85.7183 9.60862 86.2316 9.69729 86.6423 9.87462C87.0623 10.052 87.3749 10.304 87.5803 10.6306C87.7949 10.9573 87.9023 11.3493 87.9023 11.8066V15.7966C87.9023 15.974 87.9443 16.1 88.0283 16.1746C88.1123 16.24 88.2149 16.2726 88.3363 16.2726H88.8823V17.0846C88.7516 17.1406 88.6069 17.1873 88.4483 17.2246C88.2896 17.2713 88.1076 17.2946 87.9023 17.2946C87.6596 17.2946 87.4589 17.2433 87.3003 17.1406C87.1416 17.0473 87.0203 16.9166 86.9363 16.7486C86.8523 16.5713 86.7963 16.3753 86.7683 16.1606H86.6703C86.5023 16.394 86.2876 16.5993 86.0263 16.7766C85.7743 16.9446 85.4896 17.0753 85.1723 17.1686C84.8549 17.262 84.5096 17.3086 84.1363 17.3086ZM84.4443 16.2726C84.7429 16.2726 85.0229 16.226 85.2843 16.1326C85.5549 16.0393 85.7929 15.9086 85.9983 15.7406C86.2036 15.5633 86.3669 15.3533 86.4883 15.1106C86.6096 14.868 86.6703 14.602 86.6703 14.3126V13.6966C85.9143 13.6966 85.2703 13.7386 84.7383 13.8226C84.2063 13.9066 83.7956 14.056 83.5063 14.2706C83.2263 14.4853 83.0863 14.7886 83.0863 15.1806C83.0863 15.4326 83.1423 15.638 83.2543 15.7966C83.3663 15.9553 83.5249 16.0766 83.7303 16.1606C83.9356 16.2353 84.1736 16.2726 84.4443 16.2726ZM89.9172 17.1406V9.77662H90.9112L91.0232 10.8826H91.1212C91.3172 10.584 91.5365 10.3413 91.7792 10.1546C92.0312 9.96796 92.3065 9.83262 92.6052 9.74863C92.9132 9.65529 93.2398 9.60862 93.5852 9.60862C94.0518 9.60862 94.4578 9.68796 94.8032 9.84662C95.1578 10.0053 95.4332 10.262 95.6292 10.6166C95.8345 10.9713 95.9372 11.452 95.9372 12.0586V17.1406H94.7052V12.2266C94.7052 11.9186 94.6632 11.6666 94.5792 11.4706C94.5045 11.2746 94.3972 11.1206 94.2572 11.0086C94.1265 10.8966 93.9632 10.8173 93.7672 10.7706C93.5805 10.724 93.3705 10.7006 93.1372 10.7006C92.7918 10.7006 92.4652 10.7846 92.1572 10.9526C91.8492 11.1206 91.6018 11.3633 91.4152 11.6806C91.2378 11.998 91.1492 12.376 91.1492 12.8146V17.1406H89.9172ZM100.83 17.3086C100.083 17.3086 99.4532 17.1733 98.9398 16.9026C98.4358 16.6226 98.0485 16.198 97.7778 15.6286C97.5165 15.0593 97.3858 14.336 97.3858 13.4586C97.3858 12.572 97.5165 11.8486 97.7778 11.2886C98.0485 10.7193 98.4358 10.2993 98.9398 10.0286C99.4532 9.74862 100.083 9.60862 100.83 9.60862C101.577 9.60862 102.202 9.74862 102.706 10.0286C103.219 10.2993 103.607 10.7193 103.868 11.2886C104.129 11.8486 104.26 12.572 104.26 13.4586C104.26 14.336 104.129 15.0593 103.868 15.6286C103.607 16.198 103.219 16.6226 102.706 16.9026C102.202 17.1733 101.577 17.3086 100.83 17.3086ZM100.83 16.2726C101.306 16.2726 101.703 16.1793 102.02 15.9926C102.337 15.806 102.575 15.5166 102.734 15.1246C102.902 14.7233 102.986 14.2193 102.986 13.6126V13.3046C102.986 12.6886 102.902 12.1846 102.734 11.7926C102.575 11.4006 102.337 11.1113 102.02 10.9246C101.703 10.738 101.306 10.6446 100.83 10.6446C100.354 10.6446 99.9525 10.738 99.6258 10.9246C99.3085 11.1113 99.0705 11.4006 98.9118 11.7926C98.7532 12.1846 98.6738 12.6886 98.6738 13.3046V13.6126C98.6738 14.2193 98.7532 14.7233 98.9118 15.1246C99.0705 15.5166 99.3085 15.806 99.6258 15.9926C99.9525 16.1793 100.354 16.2726 100.83 16.2726Z" fill="#EAEAEA"/>
</svg>
